<svg width="145" height="39" viewBox="0 0 145 39" fill="none" xmlns="http://www.w3.org/2000/svg">
<g style="mix-blend-mode:darken" clip-path="url(#clip0_148_4179)">
<rect width="145" height="39" fill="white"/>
<path d="M8.216 29.182C6.88133 29.182 5.68533 28.9653 4.628 28.532C3.57067 28.0987 2.72133 27.4573 2.08 26.608C1.456 25.7587 1.12667 24.736 1.092 23.54H5.824C5.89333 24.216 6.12733 24.736 6.526 25.1C6.92467 25.4467 7.44467 25.62 8.086 25.62C8.74467 25.62 9.26467 25.4727 9.646 25.178C10.0273 24.866 10.218 24.4413 10.218 23.904C10.218 23.4533 10.062 23.0807 9.75 22.786C9.45533 22.4913 9.08267 22.2487 8.632 22.058C8.19867 21.8673 7.57467 21.6507 6.76 21.408C5.58133 21.044 4.61933 20.68 3.874 20.316C3.12867 19.952 2.48733 19.4147 1.95 18.704C1.41267 17.9933 1.144 17.066 1.144 15.922C1.144 14.2233 1.75933 12.8973 2.99 11.944C4.22067 10.9733 5.824 10.488 7.8 10.488C9.81067 10.488 11.4313 10.9733 12.662 11.944C13.8927 12.8973 14.5513 14.232 14.638 15.948H9.828C9.79333 15.3587 9.57667 14.8993 9.178 14.57C8.77933 14.2233 8.268 14.05 7.644 14.05C7.10667 14.05 6.67333 14.1973 6.344 14.492C6.01467 14.7693 5.85 15.1767 5.85 15.714C5.85 16.3033 6.12733 16.7627 6.682 17.092C7.23667 17.4213 8.10333 17.7767 9.282 18.158C10.4607 18.5567 11.414 18.938 12.142 19.302C12.8873 19.666 13.5287 20.1947 14.066 20.888C14.6033 21.5813 14.872 22.474 14.872 23.566C14.872 24.606 14.6033 25.5507 14.066 26.4C13.546 27.2493 12.7833 27.9253 11.778 28.428C10.7727 28.9307 9.58533 29.182 8.216 29.182ZM25.6941 25.23V29H23.4321C21.8201 29 20.5634 28.61 19.6621 27.83C18.7608 27.0327 18.3101 25.7413 18.3101 23.956V18.184H16.5421V14.492H18.3101V10.956H22.7561V14.492H25.6681V18.184H22.7561V24.008C22.7561 24.4413 22.8601 24.7533 23.0681 24.944C23.2761 25.1347 23.6228 25.23 24.1081 25.23H25.6941ZM27.2866 21.72C27.2866 20.2293 27.5639 18.9207 28.1186 17.794C28.6906 16.6673 29.4619 15.8007 30.4326 15.194C31.4033 14.5873 32.4866 14.284 33.6826 14.284C34.7053 14.284 35.5979 14.492 36.3606 14.908C37.1406 15.324 37.7386 15.87 38.1546 16.546V14.492H42.6006V29H38.1546V26.946C37.7213 27.622 37.1146 28.168 36.3346 28.584C35.5719 29 34.6793 29.208 33.6566 29.208C32.4779 29.208 31.4033 28.9047 30.4326 28.298C29.4619 27.674 28.6906 26.7987 28.1186 25.672C27.5639 24.528 27.2866 23.2107 27.2866 21.72ZM38.1546 21.746C38.1546 20.6367 37.8426 19.7613 37.2186 19.12C36.6119 18.4787 35.8666 18.158 34.9826 18.158C34.0986 18.158 33.3446 18.4787 32.7206 19.12C32.1139 19.744 31.8106 20.6107 31.8106 21.72C31.8106 22.8293 32.1139 23.7133 32.7206 24.372C33.3446 25.0133 34.0986 25.334 34.9826 25.334C35.8666 25.334 36.6119 25.0133 37.2186 24.372C37.8426 23.7307 38.1546 22.8553 38.1546 21.746ZM60.6371 14.492L51.5371 35.89H46.7531L50.0811 28.506L44.1791 14.492H49.1451L52.4991 23.566L55.8271 14.492H60.6371Z" fill="#152C5B"/>
<path d="M74.1268 10.748V14.31H66.6908V18.158H72.2548V21.616H66.6908V29H62.2448V10.748H74.1268ZM78.6996 12.984C77.9196 12.984 77.2782 12.7587 76.7756 12.308C76.2902 11.84 76.0476 11.268 76.0476 10.592C76.0476 9.89867 76.2902 9.32667 76.7756 8.876C77.2782 8.408 77.9196 8.174 78.6996 8.174C79.4622 8.174 80.0862 8.408 80.5716 8.876C81.0742 9.32667 81.3256 9.89867 81.3256 10.592C81.3256 11.268 81.0742 11.84 80.5716 12.308C80.0862 12.7587 79.4622 12.984 78.6996 12.984ZM80.9096 14.492V29H76.4636V14.492H80.9096ZM92.9715 14.336C94.6702 14.336 96.0222 14.8907 97.0275 16C98.0502 17.092 98.5615 18.6 98.5615 20.524V29H94.1415V21.122C94.1415 20.1513 93.8902 19.3973 93.3875 18.86C92.8849 18.3227 92.2089 18.054 91.3595 18.054C90.5102 18.054 89.8342 18.3227 89.3315 18.86C88.8289 19.3973 88.5775 20.1513 88.5775 21.122V29H84.1315V14.492H88.5775V16.416C89.0282 15.7747 89.6349 15.272 90.3975 14.908C91.1602 14.5267 92.0182 14.336 92.9715 14.336ZM100.767 21.72C100.767 20.2293 101.044 18.9207 101.599 17.794C102.171 16.6673 102.942 15.8007 103.913 15.194C104.884 14.5873 105.967 14.284 107.163 14.284C108.116 14.284 108.983 14.4833 109.763 14.882C110.56 15.2807 111.184 15.818 111.635 16.494V9.76H116.081V29H111.635V26.92C111.219 27.6133 110.621 28.168 109.841 28.584C109.078 29 108.186 29.208 107.163 29.208C105.967 29.208 104.884 28.9047 103.913 28.298C102.942 27.674 102.171 26.7987 101.599 25.672C101.044 24.528 100.767 23.2107 100.767 21.72ZM111.635 21.746C111.635 20.6367 111.323 19.7613 110.699 19.12C110.092 18.4787 109.347 18.158 108.463 18.158C107.579 18.158 106.825 18.4787 106.201 19.12C105.594 19.744 105.291 20.6107 105.291 21.72C105.291 22.8293 105.594 23.7133 106.201 24.372C106.825 25.0133 107.579 25.334 108.463 25.334C109.347 25.334 110.092 25.0133 110.699 24.372C111.323 23.7307 111.635 22.8553 111.635 21.746ZM132.974 21.512C132.974 21.928 132.948 22.3613 132.896 22.812H122.834C122.903 23.7133 123.189 24.4067 123.692 24.892C124.212 25.36 124.844 25.594 125.59 25.594C126.699 25.594 127.47 25.126 127.904 24.19H132.636C132.393 25.1433 131.951 26.0013 131.31 26.764C130.686 27.5267 129.897 28.1247 128.944 28.558C127.99 28.9913 126.924 29.208 125.746 29.208C124.324 29.208 123.059 28.9047 121.95 28.298C120.84 27.6913 119.974 26.8247 119.35 25.698C118.726 24.5713 118.414 23.254 118.414 21.746C118.414 20.238 118.717 18.9207 119.324 17.794C119.948 16.6673 120.814 15.8007 121.924 15.194C123.033 14.5873 124.307 14.284 125.746 14.284C127.15 14.284 128.398 14.5787 129.49 15.168C130.582 15.7573 131.431 16.598 132.038 17.69C132.662 18.782 132.974 20.056 132.974 21.512ZM128.424 20.342C128.424 19.5793 128.164 18.9727 127.644 18.522C127.124 18.0713 126.474 17.846 125.694 17.846C124.948 17.846 124.316 18.0627 123.796 18.496C123.293 18.9293 122.981 19.5447 122.86 20.342H128.424ZM139.765 16.91C140.285 16.1127 140.935 15.4887 141.715 15.038C142.495 14.57 143.362 14.336 144.315 14.336V19.042H143.093C141.984 19.042 141.152 19.2847 140.597 19.77C140.042 20.238 139.765 21.07 139.765 22.266V29H135.319V14.492H139.765V16.91Z" fill="#06B3C4"/>
</g>
<defs>
<clipPath id="clip0_148_4179">
<rect width="145" height="39" fill="white"/>
</clipPath>
</defs>
</svg>
