<svg width="50" height="50" viewBox="0 0 33 32" fill="none" xmlns="http://www.w3.org/2000/svg">
<path d="M14.167 27.8667C8.50033 26.8667 4.16699 21.9333 4.16699 16C4.16699 9.4 9.56699 4 16.167 4C22.767 4 28.167 9.4 28.167 16C28.167 21.9333 23.8337 26.8667 18.167 27.8667L17.5003 27.3333H14.8337L14.167 27.8667Z" fill="#0D1634"/>
<path d="M20.8337 19.3333L21.367 16H18.167V13.6666C18.167 12.7333 18.5003 12 19.967 12H21.5003V8.93329C20.6337 8.79996 19.7003 8.66663 18.8337 8.66663C16.1003 8.66663 14.167 10.3333 14.167 13.3333V16H11.167V19.3333H14.167V27.8C14.8337 27.9333 15.5003 28 16.167 28C16.8337 28 17.5003 27.9333 18.167 27.8V19.3333H20.8337Z" fill="white"/>
</svg>
